<svg xmlns="http://www.w3.org/2000/svg" viewBox="0 0 1800 880" style="width:100%;height:100%"><defs><g stroke-dashoffset="1"><path d="M17 2l43-58 61-98 21 69 39 80-40-60-66 18 167-122-10 68-4 93 29-63 21-20 19-9 19 15 4 22-17 29-56 45 119-80 29-90L374 5l39-52 22-27 20-11h12l3 27 2 28 28 10 39-26 11-16 21-28-6 46 6 27 15-168-7 175s14 5 17 3 40-27 40-27l25-27 17-39-9 79 20-19 10-15 21-22 11-8 15-2 7 2.3 0.65-5.28-6.23-6.96-2.59-1.69-5.83-2.53-9.72-2.53-3.67 0-7.02.62-10.05 1.85-3.03 1.24-5.89 2.92-8.59 5.06.55 1.84-3.03 3.71-5.82 5.62-8.36 1.91-2.55 3.72-4.68 5.45-6.4 2.02-2.1 4.09-4.1 6.23-6.01 2.13-1.91 4.36-3.59 6.68-5.05 2.32-1.47 4.7-2.61 7.13-3.43a23.3 23.3 0 017.58-1.24c1.2 0 2.4-.01 3.6-.05 1.19-.04 2.2.54 3.03 1.74.82 1.2 1.31 2.73 1.46 4.6.15 1.88.22 3.45.22 4.72 0 11.98-2.92 23.25-8.76 33.8z" display="inherit"/></g></mask></defs><text x="50%" y="50%" text-anchor="middle" dominant-baseline="middle" font-size="100" fill="black" mask="url(#a)">ankita samantyaray</text></svg>
